<svg xmlns="http://www.w3.org/2000/svg" width="7.0773in" height="7.0773in" viewBox="0 0 509.567 509.567"><defs><style>.a{fill:none;stroke:#094053;stroke-miterlimit:10;stroke-width:12px;}.b{fill:#ef6ea9;}</style></defs><title>graphic</title><line class="a" x1="254.7835" y1="40.4062" x2="254.7835" y2="469.1608"/><circle class="b" cx="254.7835" cy="40.4062" r="40.4062"/><circle class="b" cx="254.7835" cy="469.1608" r="40.4062"/><line class="a" x1="147.5948" y1="69.1273" x2="361.9721" y2="440.4397"/><circle class="b" cx="147.5948" cy="69.1273" r="40.4062" transform="translate(-14.7897 83.0587) rotate(-30)"/><circle class="b" cx="361.9721" cy="440.4397" r="40.4062" transform="translate(-171.7248 239.9938) rotate(-30)"/><line class="a" x1="69.1273" y1="147.5948" x2="440.4397" y2="361.9721"/><circle class="b" cx="69.1273" cy="147.5948" r="40.4062" transform="translate(-93.2572 133.6634) rotate(-60)"/><circle class="b" cx="440.4397" cy="361.9721" r="40.4062" transform="translate(-93.2572 562.418) rotate(-60)"/><line class="a" x1="40.4062" y1="254.7835" x2="469.1608" y2="254.7835"/><circle class="b" cx="40.4062" cy="254.7835" r="40.4062"/><circle class="b" cx="469.1608" cy="254.7835" r="40.4062"/><line class="a" x1="69.1273" y1="361.9721" x2="440.4397" y2="147.5948"/><circle class="b" cx="69.1273" cy="361.9721" r="40.4062" transform="translate(-171.7248 83.0587) rotate(-30)"/><circle class="b" cx="440.4397" cy="147.5948" r="40.4062" transform="translate(-14.7897 239.9938) rotate(-30)"/><line class="a" x1="147.5948" y1="440.4397" x2="361.9721" y2="69.1273"/><circle class="b" cx="147.5948" cy="440.4397" r="40.4062" transform="matrix(0.5, -0.866, 0.866, 0.5, -307.6345, 348.0407)"/><circle class="b" cx="361.9721" cy="69.1273" r="40.4062" transform="matrix(0.5, -0.866, 0.866, 0.5, 121.1201, 348.0407)"/></svg>